<?xml version="1.0" encoding="UTF-8" standalone="no"?>
<!-- This is a Stata 16.1 generated SVG file (http://www.stata.com) -->

<svg version="1.1" width="5.50in" height="4.00in" viewBox="0 0 3960 2880" xmlns="http://www.w3.org/2000/svg" xmlns:xlink="http://www.w3.org/1999/xlink">
	<desc>Stata Graph - Graph</desc>
	<rect x="0" y="0" width="3960" height="2880" style="fill:#EAF2F3;stroke:none"/>
	<rect x="0.00" y="0.00" width="3959.88" height="2880.00" style="fill:#FFFFFF"/>
	<rect x="2.88" y="2.88" width="3954.12" height="2874.24" style="fill:none;stroke:#FFFFFF;stroke-width:5.76"/>
	<rect x="390.80" y="100.86" width="3468.22" height="2488.32" style="fill:#FFFFFF"/>
	<rect x="393.68" y="103.74" width="3462.46" height="2482.56" style="fill:none;stroke:#FFFFFF;stroke-width:5.76"/>
	<line x1="390.80" y1="2525.82" x2="3859.02" y2="2525.82" style="stroke:#EAF2F3;stroke-width:8.64"/>
	<line x1="390.80" y1="1991.08" x2="3859.02" y2="1991.08" style="stroke:#EAF2F3;stroke-width:8.64"/>
	<line x1="390.80" y1="1456.34" x2="3859.02" y2="1456.34" style="stroke:#EAF2F3;stroke-width:8.64"/>
	<line x1="390.80" y1="921.60" x2="3859.02" y2="921.60" style="stroke:#EAF2F3;stroke-width:8.64"/>
	<line x1="390.80" y1="386.85" x2="3859.02" y2="386.85" style="stroke:#EAF2F3;stroke-width:8.64"/>
	<rect x="454.16" y="2019.17" width="1670.75" height="506.65" style="fill:#ADD8E6"/>
	<rect x="457.04" y="2022.05" width="1664.99" height="500.89" style="fill:none;stroke:#ADD8E6;stroke-width:5.76"/>
	<rect x="2124.91" y="771.85" width="1670.75" height="1753.96" style="fill:#CD375D"/>
	<rect x="2127.79" y="774.73" width="1664.99" height="1748.20" style="fill:none;stroke:#C10534;stroke-width:5.76"/>
	<line x1="1289.47" y1="2218.41" x2="1289.47" y2="1819.92" style="stroke:#000000;stroke-width:12.96"/>
	<line x1="1267.45" y1="1819.92" x2="1311.50" y2="1819.92" stroke-linecap="round" style="stroke:#000000;stroke-width:12.96"/>
	<line x1="1267.45" y1="2218.41" x2="1311.50" y2="2218.41" stroke-linecap="round" style="stroke:#000000;stroke-width:12.96"/>
	<line x1="2960.35" y1="1379.48" x2="2960.35" y2="164.22" style="stroke:#000000;stroke-width:12.96"/>
	<line x1="2938.32" y1="164.22" x2="2982.38" y2="164.22" stroke-linecap="round" style="stroke:#000000;stroke-width:12.96"/>
	<line x1="2938.32" y1="1379.48" x2="2982.38" y2="1379.48" stroke-linecap="round" style="stroke:#000000;stroke-width:12.96"/>
	<line x1="390.80" y1="2589.18" x2="390.80" y2="100.86" style="stroke:#000000;stroke-width:5.76"/>
	<line x1="390.80" y1="2525.82" x2="350.83" y2="2525.82" style="stroke:#000000;stroke-width:5.76"/>
	<text x="300.72" y="2525.82" style="font-family:'Palatino';font-size:99.99px;fill:#000000" transform="rotate(-90 300.72,2525.82)" text-anchor="middle">.1</text>
	<line x1="390.80" y1="1991.08" x2="350.83" y2="1991.08" style="stroke:#000000;stroke-width:5.76"/>
	<text x="300.72" y="1991.08" style="font-family:'Palatino';font-size:99.99px;fill:#000000" transform="rotate(-90 300.72,1991.08)" text-anchor="middle">.2</text>
	<line x1="390.80" y1="1456.34" x2="350.83" y2="1456.34" style="stroke:#000000;stroke-width:5.76"/>
	<text x="300.72" y="1456.34" style="font-family:'Palatino';font-size:99.99px;fill:#000000" transform="rotate(-90 300.72,1456.34)" text-anchor="middle">.3</text>
	<line x1="390.80" y1="921.60" x2="350.83" y2="921.60" style="stroke:#000000;stroke-width:5.76"/>
	<text x="300.72" y="921.60" style="font-family:'Palatino';font-size:99.99px;fill:#000000" transform="rotate(-90 300.72,921.60)" text-anchor="middle">.4</text>
	<line x1="390.80" y1="386.85" x2="350.83" y2="386.85" style="stroke:#000000;stroke-width:5.76"/>
	<text x="300.72" y="386.85" style="font-family:'Palatino';font-size:99.99px;fill:#000000" transform="rotate(-90 300.72,386.85)" text-anchor="middle">.5</text>
	<text x="190.71" y="1344.96" style="font-family:'Palatino';font-size:99.99px;fill:#000000" transform="rotate(-90 190.71,1344.96)" text-anchor="middle">Probability to major in econ</text>
	<line x1="390.80" y1="2589.18" x2="3859.02" y2="2589.18" style="stroke:#000000;stroke-width:5.76"/>
	<line x1="1289.47" y1="2589.18" x2="1289.47" y2="2629.15" style="stroke:#000000;stroke-width:5.76"/>
	<text x="1289.47" y="2719.13" style="font-family:'Palatino';font-size:99.99px;fill:#000000" text-anchor="middle">Male Professor</text>
	<line x1="2960.35" y1="2589.18" x2="2960.35" y2="2629.15" style="stroke:#000000;stroke-width:5.76"/>
	<text x="2960.35" y="2719.13" style="font-family:'Palatino';font-size:99.99px;fill:#000000" text-anchor="middle">Female Professor</text>
</svg>
